<svg width="1159" height="205" viewBox="0 0 1159 205" fill="none" xmlns="http://www.w3.org/2000/svg">
<path fill-rule="evenodd" clip-rule="evenodd" d="M3 203L10.3169 181.386L35.969 180.458L53.8997 172.351L72.6454 171.905L86.306 159.984L98.3209 128.994L106.023 117.906L126.594 141.034L143.323 144.554L155.564 137.839L170.334 108.241L212.683 168.254L230.118 142.406L250.108 155.38L260.883 135.599L262.985 126.109L279.211 116.417L287.592 103.247L296.853 121.644L295.321 133.724L303.865 135.511L310.494 130.133L327.797 8.64343L343.903 156.636L358.246 140.723V131.635L370.506 122.244L376.247 115.046L386.811 104.22L411.925 115.508L424.427 121.644L434.52 117.672L452.123 135.524L477.728 100.438L485.219 119.571L501.274 132.808L516.838 128.568L524.107 119.568L535.743 115.503L537.21 107.776L550.488 88.7772L569.983 94.173L575.926 77.2864L602.658 188.061L621.716 165.909L646.83 164.36L676.923 180.082L688.615 118.754L703.281 122.206L710.184 114.998L714.072 117.3L721.368 116.598L725.537 119.699L737.119 121.722L737.326 128.584L751.169 132.934L768.468 131.972L769.377 120.485L756.342 45.3121L786.719 76.1315L801.92 86.4867L839.953 65.3109L861.416 80.3683H868.283H876.029L885.451 89.8119L896.897 100.438L958.033 104.22L967.859 88.7772L1009.06 132.801L1032.78 94.173L1057.15 107.73L1080.15 90.6815L1105.6 104.22L1124.83 113.053L1135.63 110.353L1147.55 103.247L1159 94.173V203H98.6838H3Z" fill="url(#paint0_linear_27_91)"/>
<path d="M3 204L10.3936 181.573L36.0414 180.643L53.9692 172.525L72.7119 172.079L86.3702 160.142L98.3831 129.109L106.243 118.006L126.651 141.166L143.378 144.69L155.617 137.967L170.157 107.862L212.726 168.423L230.159 142.539L250.145 155.531L260.918 135.723L263.02 126.22L279.244 116.515L287.623 103.326L296.883 121.749L295.351 133.846L303.893 135.635L310.522 130.25L327.797 8.64343L343.925 156.79L358.266 140.854V131.754L370.524 122.35L376.263 115.142L386.826 104.301L411.936 115.605L424.436 121.749L434.527 117.772L452.127 135.648L477.728 100.514L485.218 119.673L501.27 132.928L516.831 128.683L524.099 119.671L535.734 115.6L537.2 107.862L550.476 88.8372L569.968 94.2404L576.021 79.1656L602.638 188.257L621.692 166.075L646.802 164.523L676.891 180.267L688.58 118.855L703.244 122.312L710.146 115.094L714.033 117.4L721.328 116.696L725.496 119.801L737.076 121.827L737.283 128.699L751.124 133.055L768.421 132.091L769.329 120.588L756.342 45.3121L786.668 76.1742L801.867 86.5436L839.894 65.3387L861.042 80.4168H875.648L896.804 100.514L925.504 104.301H957.617L967.439 88.8372L989.94 113.026L1008.62 133.846L1032.89 94.2404C1032.89 94.2404 1055.1 108.894 1057.65 107.862C1060.2 106.83 1081.43 90.6494 1081.43 90.6494L1102.01 103.326L1126.62 115.142L1147.06 104.301L1156.68 94.2404H1153.92H1155.4" stroke="#4379EE" stroke-width="1.5"/>
<path fill-rule="evenodd" clip-rule="evenodd" d="M327.653 8C330.21 8 332.284 6.20914 332.284 4C332.284 1.79086 330.21 0 327.653 0C325.095 0 323.021 1.79086 323.021 4C323.021 6.20914 325.095 8 327.653 8Z" fill="#4880FF"/>
<path fill-rule="evenodd" clip-rule="evenodd" d="M288.288 107C290.846 107 292.919 105.209 292.919 103C292.919 100.791 290.846 99 288.288 99C285.73 99 283.657 100.791 283.657 103C283.657 105.209 285.73 107 288.288 107Z" fill="#4379EE"/>
<path fill-rule="evenodd" clip-rule="evenodd" d="M213.032 171C215.59 171 217.663 169.209 217.663 167C217.663 164.791 215.59 163 213.032 163C210.474 163 208.401 164.791 208.401 167C208.401 169.209 210.474 171 213.032 171Z" fill="#4379EE"/>
<path fill-rule="evenodd" clip-rule="evenodd" d="M171.352 111C173.91 111 175.983 109.209 175.983 107C175.983 104.791 173.91 103 171.352 103C168.794 103 166.721 104.791 166.721 107C166.721 109.209 168.794 111 171.352 111Z" fill="#4379EE"/>
<path fill-rule="evenodd" clip-rule="evenodd" d="M106.516 120C109.074 120 111.147 118.209 111.147 116C111.147 113.791 109.074 112 106.516 112C103.958 112 101.885 113.791 101.885 116C101.885 118.209 103.958 120 106.516 120Z" fill="#4379EE"/>
<path fill-rule="evenodd" clip-rule="evenodd" d="M71.7825 175C74.3402 175 76.4136 173.209 76.4136 171C76.4136 168.791 74.3402 167 71.7825 167C69.2248 167 67.1514 168.791 67.1514 171C67.1514 173.209 69.2248 175 71.7825 175Z" fill="#4379EE"/>
<path fill-rule="evenodd" clip-rule="evenodd" d="M4.63113 205C7.18883 205 9.26226 203.209 9.26226 201C9.26226 198.791 7.18883 197 4.63113 197C2.07343 197 0 198.791 0 201C0 203.209 2.07343 205 4.63113 205Z" fill="#4379EE"/>
<path fill-rule="evenodd" clip-rule="evenodd" d="M386.699 108C389.257 108 391.331 106.209 391.331 104C391.331 101.791 389.257 100 386.699 100C384.142 100 382.068 101.791 382.068 104C382.068 106.209 384.142 108 386.699 108Z" fill="#4379EE"/>
<path fill-rule="evenodd" clip-rule="evenodd" d="M478.164 102C480.722 102 482.795 100.209 482.795 98C482.795 95.7909 480.722 94 478.164 94C475.607 94 473.533 95.7909 473.533 98C473.533 100.209 475.607 102 478.164 102Z" fill="#4379EE"/>
<path fill-rule="evenodd" clip-rule="evenodd" d="M576.575 81C579.133 81 581.207 79.2091 581.207 77C581.207 74.7909 579.133 73 576.575 73C574.018 73 571.944 74.7909 571.944 77C571.944 79.2091 574.018 81 576.575 81Z" fill="#4379EE"/>
<path fill-rule="evenodd" clip-rule="evenodd" d="M602.047 191C604.605 191 606.678 189.209 606.678 187C606.678 184.791 604.605 183 602.047 183C599.489 183 597.416 184.791 597.416 187C597.416 189.209 599.489 191 602.047 191Z" fill="#4379EE"/>
<path fill-rule="evenodd" clip-rule="evenodd" d="M677.303 183C679.861 183 681.934 181.209 681.934 179C681.934 176.791 679.861 175 677.303 175C674.745 175 672.672 176.791 672.672 179C672.672 181.209 674.745 183 677.303 183Z" fill="#4379EE"/>
<path fill-rule="evenodd" clip-rule="evenodd" d="M757.19 49C759.747 49 761.821 47.2091 761.821 45C761.821 42.7909 759.747 41 757.19 41C754.632 41 752.559 42.7909 752.559 45C752.559 47.2091 754.632 49 757.19 49Z" fill="#4379EE"/>
<path fill-rule="evenodd" clip-rule="evenodd" d="M767.61 134C770.167 134 772.241 132.209 772.241 130C772.241 127.791 770.167 126 767.61 126C765.052 126 762.979 127.791 762.979 130C762.979 132.209 765.052 134 767.61 134Z" fill="#4379EE"/>
<path fill-rule="evenodd" clip-rule="evenodd" d="M801.185 89C803.743 89 805.816 87.2091 805.816 85C805.816 82.7909 803.743 81 801.185 81C798.628 81 796.554 82.7909 796.554 85C796.554 87.2091 798.628 89 801.185 89Z" fill="#4379EE"/>
<path fill-rule="evenodd" clip-rule="evenodd" d="M838.235 69C840.792 69 842.866 67.2091 842.866 65C842.866 62.7909 840.792 61 838.235 61C835.677 61 833.604 62.7909 833.604 65C833.604 67.2091 835.677 69 838.235 69Z" fill="#4379EE"/>
<path fill-rule="evenodd" clip-rule="evenodd" d="M967.906 92C970.464 92 972.537 90.2091 972.537 88C972.537 85.7909 970.464 84 967.906 84C965.348 84 963.275 85.7909 963.275 88C963.275 90.2091 965.348 92 967.906 92Z" fill="#4379EE"/>
<path fill-rule="evenodd" clip-rule="evenodd" d="M1008.43 138C1010.99 138 1013.06 136.209 1013.06 134C1013.06 131.791 1010.99 130 1008.43 130C1005.87 130 1003.8 131.791 1003.8 134C1003.8 136.209 1005.87 138 1008.43 138Z" fill="#4379EE"/>
<path fill-rule="evenodd" clip-rule="evenodd" d="M1032.74 97C1035.3 97 1037.37 95.2091 1037.37 93C1037.37 90.7909 1035.3 89 1032.74 89C1030.18 89 1028.11 90.7909 1028.11 93C1028.11 95.2091 1030.18 97 1032.74 97Z" fill="#4379EE"/>
<path fill-rule="evenodd" clip-rule="evenodd" d="M1081.37 95C1083.93 95 1086 93.2091 1086 91C1086 88.7909 1083.93 87 1081.37 87C1078.81 87 1076.74 88.7909 1076.74 91C1076.74 93.2091 1078.81 95 1081.37 95Z" fill="#4379EE"/>
<defs>
<linearGradient id="paint0_linear_27_91" x1="356.055" y1="105.822" x2="356.055" y2="181.461" gradientUnits="userSpaceOnUse">
<stop stop-color="#4379EE" stop-opacity="0.16"/>
<stop offset="1" stop-color="#273142" stop-opacity="0.0293652"/>
</linearGradient>
</defs>
</svg>
